# xmcd CD database file
#
# Track frame offsets:
#	150
#	13258
#	27992
#	45018
#	57542
#	73824
#	89823
#	110665
#	129551
#	141050
#	156450
#	170944
#	183827
#	200839
#	215926
#	227911
#	243417
#	256975
#	271724
#	285464
#	302506
#	317183
#
# Disc length: 4397 seconds
#
# Revision: 0
# Processed by: cddbd v1.4PL0 Copyright (c) Steve Scherf et al.
# Submitted via: CDex 1.50beta10
#
DISCID=56112b16
DTITLE=Varios - Inolvidables De Cuba
DYEAR=2002
DGENRE=Salsa
TTITLE0=Trio America - Cuba Y Venezuela
TTITLE1=Trio La Rosa - Adios Compae Gato
TTITLE2=Joe Cuba - La Malanga Brava
TTITLE3=Trio Matamoros - Alegre Conga
TTITLE4=Mongo Santamaria - Monte Adentro
TTITLE5=Celina Y Reutilio - Santa Barbara
TTITLE6=Orq Brodway - Madu
TTITLE7=Joe Cuba - Bang Bang
TTITLE8=Trio La Rosa - Huerfano Soy
TTITLE9=Joe Perez - Descarga Poupurry
TTITLE10=Celina Y Reutilio - La Casa De Yagua
TTITLE11=Roberto De La Barrera - Los Coca Colos
TTITLE12=Orq Bocana - Ray Rabory
TTITLE13=Trio La Rosa - No, No, No, Que Va
TTITLE14=Celina Y Reutilio - San Lazaro
TTITLE15=Benny More - Santa Isabel De Las Lajas
TTITLE16=Trio La Rosa - Ensalada Cubana
TTITLE17=Guillermo Portabales - Guantanamera
TTITLE18=Celina Y Reutilio - Pedacito De Mi Vida
TTITLE19=Sabor De Nacho - Consuelate Como Yo
TTITLE20=Guillermo Portabales - El Carretero
TTITLE21=Guillermo Portabales - Cuando Sali De Cuba
EXTD=YEAR: 2002
EXTT0=
EXTT1=
EXTT2=
EXTT3=
EXTT4=
EXTT5=
EXTT6=
EXTT7=
EXTT8=
EXTT9=
EXTT10=
EXTT11=
EXTT12=
EXTT13=
EXTT14=
EXTT15=
EXTT16=
EXTT17=
EXTT18=
EXTT19=
EXTT20=
EXTT21=
PLAYORDER=
